<svg xmlns="http://www.w3.org/2000/svg" width="36" height="36" viewBox="0 0 36 36"><g transform="translate(-7.086 -7.087)"><g transform="translate(7.086 7.087)"><path d="M25.086,43.087a18,18,0,1,1,18-18A18.02,18.02,0,0,1,25.086,43.087Zm0-33.6a15.6,15.6,0,1,0,15.6,15.6A15.618,15.618,0,0,0,25.086,9.487Z" transform="translate(-7.086 -7.087)" fill="#fff"/></g><g transform="translate(19.567 19.087)"><path d="M86.309,88.992a5.52,5.52,0,1,1,5.519-5.52A5.526,5.526,0,0,1,86.309,88.992Zm0-8.64a3.12,3.12,0,1,0,3.119,3.12A3.123,3.123,0,0,0,86.309,80.352Z" transform="translate(-80.79 -77.952)" fill="#fff"/></g><g transform="translate(15.967 30.565)"><path d="M68.649,158.259a18.039,18.039,0,0,1-8.487-2.127,1.2,1.2,0,0,1-.633-1.058v-2.417a6.926,6.926,0,0,1,6.917-6.919h4.4a6.926,6.926,0,0,1,6.917,6.919v2.417a1.2,1.2,0,0,1-.633,1.058A18.039,18.039,0,0,1,68.649,158.259Zm-6.719-3.922a15.839,15.839,0,0,0,13.439,0v-1.68a4.523,4.523,0,0,0-4.517-4.519h-4.4a4.523,4.523,0,0,0-4.517,4.519Zm14.639.737h0Z" transform="translate(-59.53 -145.738)" fill="#fff"/></g></g></svg>