<svg xmlns="http://www.w3.org/2000/svg" width="24" height="18" viewBox="0 0 24 18"><g transform="translate(-287 -27.347)"><g transform="translate(287 27.347)"><path d="M308.65,27.347c-1.45,0-1.86.91-3.73,3.24a4,4,0,0,0-3.92-3.24H291a4,4,0,0,0-4,4v10a4,4,0,0,0,4,4h10a4,4,0,0,0,3.92-3.24l1.89,2.36A2.36,2.36,0,0,0,311,43V29.7a2.35,2.35,0,0,0-2.35-2.35Z" transform="translate(-287 -27.347)" fill="#2e8fcf"/></g><path d="M337.275,79.57l-4.29,4.3-1.79-1.8a1,1,0,0,0-1.42,1.42c2.7,2.7,2.66,2.79,3.21,2.79s.35.06,5.71-5.29a1,1,0,0,0-1.42-1.42Z" transform="translate(-37.985 -46.433)" fill="#fff"/></g></svg>