<svg xmlns="http://www.w3.org/2000/svg" width="24" height="24" viewBox="0 0 24 24">
  <path d="M2.831,19.754,1.343,21.243l1.414,1.414,1.488-1.489A4.944,4.944,0,0,0,6,21.9V24H8V21.9a4.987,4.987,0,0,0,1.754-.73l1.488,1.488,1.414-1.415-1.488-1.487A4.949,4.949,0,0,0,11.9,18H14V16H11.9a4.979,4.979,0,0,0-.731-1.755l1.488-1.487-1.414-1.414L9.754,12.832A4.947,4.947,0,0,0,8,12.1V10H6v2.1a4.954,4.954,0,0,0-1.754.73L2.758,11.344,1.343,12.758l1.488,1.488A4.956,4.956,0,0,0,2.1,16H0v2H2.1A4.93,4.93,0,0,0,2.831,19.754Z" fill="#eae9eb"/>
  <path d="M21.8,3.615l1.15-1.149L21.536,1.052,20.387,2.2A4.453,4.453,0,0,0,19,1.621V0H17V1.621a4.426,4.426,0,0,0-1.385.578L14.465,1.05,13.051,2.464,14.2,3.613A4.463,4.463,0,0,0,13.621,5H12V7h1.621A4.453,4.453,0,0,0,14.2,8.387L13.051,9.536l1.414,1.414,1.15-1.15A4.452,4.452,0,0,0,17,10.379V12h2V10.379A4.453,4.453,0,0,0,20.387,9.8l1.148,1.148,1.414-1.414L21.8,8.387A4.463,4.463,0,0,0,22.379,7H24V5H22.379A4.452,4.452,0,0,0,21.8,3.615ZM18,7.5A1.5,1.5,0,1,1,19.5,6,1.5,1.5,0,0,1,18,7.5Z" fill="#eae9eb"/>
</svg>