<svg xmlns="http://www.w3.org/2000/svg" width="22" height="22" viewBox="0 0 22 22"><g transform="translate(-99.211 -99.212)"><path d="M110.211,121.212a11,11,0,1,1,11-11h0A11.013,11.013,0,0,1,110.211,121.212Zm0-19.555a8.556,8.556,0,1,0,8.556,8.555A8.555,8.555,0,0,0,110.211,101.656Z" transform="translate(0)" fill="#fff"/><path d="M157.126,134.891a1.222,1.222,0,0,1-1.222-1.222V128.78a1.222,1.222,0,1,1,2.444,0v4.889A1.222,1.222,0,0,1,157.126,134.891Z" transform="translate(-46.915 -23.457)" fill="#fff"/><path d="M157.126,184.25a1.222,1.222,0,1,1-1.222,1.222A1.222,1.222,0,0,1,157.126,184.25Z" transform="translate(-46.915 -70.372)" fill="#fff"/></g></svg>