<svg xmlns="http://www.w3.org/2000/svg" width="24" height="18" viewBox="0 0 24 18"><g transform="translate(0 -28.347)"><path d="M50.274,80.57l-4.29,4.3-1.79-1.8a1,1,0,0,0-1.42,1.42c2.7,2.7,2.66,2.79,3.21,2.79s.35.06,5.71-5.29a1,1,0,0,0-1.42-1.42Z" transform="translate(-37.984 -46.433)"/><path d="M21.65,28.347c-1.45,0-1.86.91-3.73,3.24A4,4,0,0,0,14,28.347H4a4,4,0,0,0-4,4v10a4,4,0,0,0,4,4H14a4,4,0,0,0,3.92-3.24l1.89,2.36A2.36,2.36,0,0,0,24,44V30.7a2.35,2.35,0,0,0-2.35-2.35Zm-5.65,14a2,2,0,0,1-2,2H4a2,2,0,0,1-2-2v-10a2,2,0,0,1,2-2H14a2,2,0,0,1,2,2ZM22,44a.36.36,0,0,1-.62.22L18,40V34.7l3.38-4.22a.36.36,0,0,1,.62.22Z"/></g></svg>